M48
; DRILL file {KiCad (6.0.5)} date Fri Jun 24 08:40:58 2022
; FORMAT={-:-/ absolute / metric / decimal}
; #@! TF.CreationDate,2022-06-24T08:40:58-06:00
; #@! TF.GenerationSoftware,Kicad,Pcbnew,(6.0.5)
; #@! TF.FileFunction,MixedPlating,1,2
FMAT,2
METRIC
; #@! TA.AperFunction,Plated,PTH,ViaDrill
T1C0.400
; #@! TA.AperFunction,Plated,PTH,ComponentDrill
T2C0.650
; #@! TA.AperFunction,Plated,PTH,ComponentDrill
T3C0.762
; #@! TA.AperFunction,Plated,PTH,ComponentDrill
T4C0.800
; #@! TA.AperFunction,Plated,PTH,ComponentDrill
T5C1.000
; #@! TA.AperFunction,Plated,PTH,ComponentDrill
T6C1.100
; #@! TA.AperFunction,Plated,PTH,ComponentDrill
T7C1.297
; #@! TA.AperFunction,Plated,PTH,ComponentDrill
T8C1.499
; #@! TA.AperFunction,Plated,PTH,ComponentDrill
T9C1.800
; #@! TA.AperFunction,Plated,PTH,ComponentDrill
T10C1.905
; #@! TA.AperFunction,NonPlated,NPTH,ComponentDrill
T11C0.986
; #@! TA.AperFunction,NonPlated,NPTH,ComponentDrill
T12C0.988
; #@! TA.AperFunction,NonPlated,NPTH,ComponentDrill
T13C1.702
; #@! TA.AperFunction,NonPlated,NPTH,ComponentDrill
T14C3.450
; #@! TA.AperFunction,NonPlated,NPTH,ComponentDrill
T15C3.988
%
G90
G05
T1
X91.29Y-25.74
X93.176Y-37.12
X94.141Y-26.807
X94.73Y-29.78
X94.75Y-38.61
X94.751Y-31.278
X94.751Y-32.827
X95.64Y-37.82
X100.796Y-25.715
X103.12Y-24.6
X103.996Y-28.433
X104.5Y-34.67
X104.5Y-35.88
X107.45Y-30.99
X107.46Y-30.0
X108.06Y-26.782
X108.06Y-27.823
X109.559Y-32.116
X111.15Y-31.79
X111.97Y-30.6
X114.029Y-25.715
X115.841Y-25.766
X116.891Y-25.766
X116.92Y-23.31
X118.86Y-33.91
X120.25Y-31.91
X121.74Y-33.93
X122.411Y-25.791
X123.15Y-31.9
X127.87Y-34.53
X127.89Y-30.13
X128.37Y-24.38
X133.663Y-27.417
X138.565Y-35.418
X138.91Y-138.333
X139.48Y-23.556
X139.48Y-28.687
X139.93Y-142.7
X141.137Y-30.145
X144.267Y-30.145
X144.777Y-137.164
X144.777Y-140.39
X144.777Y-143.641
T2
X129.777Y-28.89
X129.777Y-31.43
X129.977Y-27.62
X129.977Y-30.16
X129.977Y-32.7
X131.047Y-28.89
X131.047Y-31.43
X131.247Y-27.62
X131.247Y-30.16
X131.247Y-32.7
T3
X146.597Y-81.084
X150.001Y-81.084
X159.45Y-115.99
X159.45Y-118.53
X159.45Y-121.07
X171.641Y-115.99
X171.641Y-118.53
X171.641Y-121.07
T4
X139.98Y-120.14
X139.98Y-122.64
X139.98Y-125.14
X143.18Y-120.14
X143.18Y-122.64
X143.18Y-125.14
X174.657Y-81.135
X174.657Y-84.335
X177.157Y-81.135
X177.157Y-84.335
X179.657Y-81.135
X179.657Y-84.335
T5
X87.65Y-47.27
X87.65Y-49.81
X87.708Y-71.194
X87.708Y-73.734
X87.731Y-59.717
X87.731Y-62.257
X87.731Y-79.457
X87.731Y-81.997
X89.968Y-93.734
X89.968Y-97.789
X89.968Y-101.844
X90.19Y-47.27
X90.19Y-49.81
X92.508Y-93.734
X92.508Y-97.789
X92.508Y-101.844
X92.73Y-47.27
X92.73Y-49.81
X95.048Y-93.734
X95.048Y-97.789
X95.048Y-101.844
X95.27Y-47.27
X95.27Y-49.81
X97.798Y-26.208
X97.798Y-28.748
X97.798Y-31.288
X97.798Y-33.828
X97.81Y-47.27
X97.81Y-49.81
X98.215Y-38.212
X100.35Y-47.27
X100.35Y-49.81
X100.755Y-38.212
X103.295Y-38.212
X104.708Y-71.204
X104.708Y-73.744
X104.731Y-59.727
X104.731Y-62.267
X104.731Y-79.467
X104.731Y-82.007
X105.835Y-38.212
X106.703Y-93.899
X106.703Y-97.779
X106.703Y-101.659
X107.21Y-47.24
X107.21Y-49.78
X108.375Y-38.212
X109.243Y-93.899
X109.243Y-97.779
X109.243Y-101.659
X109.75Y-47.24
X109.75Y-49.78
X110.915Y-38.212
X111.026Y-57.196
X111.026Y-59.736
X111.026Y-63.571
X111.026Y-66.111
X111.026Y-69.945
X111.026Y-72.485
X111.026Y-76.32
X111.026Y-78.86
X111.026Y-82.694
X111.026Y-85.234
X111.783Y-93.899
X111.783Y-97.779
X111.783Y-101.659
X112.29Y-47.24
X112.29Y-49.78
X113.455Y-38.212
X114.83Y-47.24
X114.83Y-49.78
X115.995Y-38.212
X117.37Y-47.24
X117.37Y-49.78
X118.535Y-38.212
X119.91Y-47.24
X119.91Y-49.78
X120.269Y-57.196
X120.269Y-59.736
X120.269Y-63.571
X120.269Y-66.111
X120.269Y-69.945
X120.269Y-72.485
X120.269Y-76.32
X120.269Y-78.86
X120.269Y-82.694
X120.269Y-85.234
X121.075Y-38.212
X123.863Y-93.8
X123.863Y-97.76
X123.863Y-101.72
X126.403Y-93.8
X126.403Y-97.76
X126.403Y-101.72
X127.439Y-57.192
X127.439Y-59.732
X127.439Y-63.567
X127.439Y-66.107
X127.439Y-69.941
X127.439Y-72.481
X127.439Y-76.316
X127.439Y-78.856
X127.439Y-82.691
X127.439Y-85.231
X128.943Y-93.8
X128.943Y-97.76
X128.943Y-101.72
X136.566Y-57.167
X136.566Y-59.707
X136.566Y-63.541
X136.566Y-66.081
X136.566Y-69.916
X136.566Y-72.456
X136.566Y-76.29
X136.566Y-78.83
X136.566Y-82.665
X136.566Y-85.205
X141.894Y-79.809
X141.894Y-82.349
X142.647Y-98.084
X142.883Y-44.347
X142.89Y-49.787
X145.187Y-98.084
X145.415Y-57.143
X145.415Y-59.683
X145.415Y-63.517
X145.415Y-66.057
X145.415Y-69.892
X145.415Y-72.432
X145.423Y-44.347
X145.43Y-49.787
X147.963Y-44.347
X147.97Y-49.787
X148.764Y-113.895
X148.764Y-118.53
X148.764Y-123.165
X150.503Y-44.347
X150.51Y-49.787
X151.304Y-113.895
X151.304Y-118.53
X151.304Y-123.165
X153.043Y-44.347
X153.05Y-49.787
X154.099Y-57.113
X154.099Y-59.653
X154.099Y-63.487
X154.099Y-66.028
X154.099Y-69.862
X154.099Y-72.402
X154.704Y-79.809
X154.704Y-82.349
X155.267Y-131.253
X155.267Y-138.787
X155.583Y-44.347
X155.59Y-49.787
X157.557Y-94.249
X157.557Y-98.094
X157.557Y-101.939
X157.807Y-131.253
X157.807Y-138.787
X160.097Y-94.249
X160.097Y-98.094
X160.097Y-101.939
X161.513Y-66.298
X161.513Y-68.838
X163.007Y-72.135
X165.507Y-72.135
X165.526Y-66.298
X165.526Y-68.838
X166.396Y-94.762
X166.447Y-101.359
X168.007Y-72.135
X168.936Y-94.762
X168.987Y-101.359
X169.539Y-66.298
X169.539Y-68.838
X175.312Y-66.245
X175.312Y-68.785
X175.362Y-74.765
X175.362Y-77.305
X178.08Y-94.762
X178.131Y-101.359
X179.0Y-113.895
X179.0Y-123.165
X179.165Y-66.235
X179.165Y-68.775
X179.187Y-74.755
X179.187Y-77.295
X180.62Y-94.762
X180.671Y-101.359
X181.54Y-113.895
X181.54Y-123.165
T6
X87.597Y-112.977
X87.597Y-125.677
T7
X88.973Y-28.236
X88.973Y-35.386
T8
X168.037Y-51.165
X174.387Y-48.625
T10
X165.546Y-111.012
X165.546Y-126.048
T11
X135.387Y-33.767
X137.419Y-33.767
T12
X136.403Y-26.147
T13
X166.767Y-53.705
X176.927Y-53.705
T14
X111.317Y-112.977
X111.317Y-136.477
T15
X171.847Y-53.705
T9
G00X161.107Y-78.985
M15
G01X161.107Y-79.285
M16
G05
G00X169.907Y-78.985
M15
G01X169.907Y-79.285
M16
G05
T0
M30
